<mxfile host="app.diagrams.net" agent="Mozilla/5.0 (Windows NT 10.0; Win64; x64) AppleWebKit/537.36 (KHTML, like Gecko) Chrome/131.0.0.0 Safari/537.36 Edg/131.0.0.0" version="26.0.5">
  <diagram id="4JZlmCExkBi3lWqlm5E2" name="Страница — 1">
    <mxGraphModel dx="1737" dy="-224" grid="1" gridSize="10" guides="1" tooltips="1" connect="1" arrows="1" fold="1" page="1" pageScale="1" pageWidth="827" pageHeight="1169" math="0" shadow="0">
      <root>
        <mxCell id="0" />
        <mxCell id="1" parent="0" />
        <mxCell id="hvm-jDke4rjOwN58F3rQ-32" value="" style="group" parent="1" vertex="1" connectable="0">
          <mxGeometry x="863" y="2640" width="120" height="95" as="geometry" />
        </mxCell>
        <mxCell id="hvm-jDke4rjOwN58F3rQ-33" value="просмотр информации о тренерах" style="ellipse;whiteSpace=wrap;html=1;" parent="hvm-jDke4rjOwN58F3rQ-32" vertex="1">
          <mxGeometry y="15" width="120" height="80" as="geometry" />
        </mxCell>
        <mxCell id="hvm-jDke4rjOwN58F3rQ-34" value="12" style="ellipse;whiteSpace=wrap;html=1;aspect=fixed;" parent="hvm-jDke4rjOwN58F3rQ-32" vertex="1">
          <mxGeometry x="41" width="30" height="30" as="geometry" />
        </mxCell>
        <mxCell id="hvm-jDke4rjOwN58F3rQ-35" value="" style="group" parent="1" vertex="1" connectable="0">
          <mxGeometry x="1080" y="2635" width="120" height="95" as="geometry" />
        </mxCell>
        <mxCell id="hvm-jDke4rjOwN58F3rQ-36" value="просмотр отзывов о тренерах" style="ellipse;whiteSpace=wrap;html=1;" parent="hvm-jDke4rjOwN58F3rQ-35" vertex="1">
          <mxGeometry y="15" width="120" height="80" as="geometry" />
        </mxCell>
        <mxCell id="hvm-jDke4rjOwN58F3rQ-37" value="13" style="ellipse;whiteSpace=wrap;html=1;aspect=fixed;" parent="hvm-jDke4rjOwN58F3rQ-35" vertex="1">
          <mxGeometry x="41" width="30" height="30" as="geometry" />
        </mxCell>
        <mxCell id="hvm-jDke4rjOwN58F3rQ-38" value="" style="group" parent="1" vertex="1" connectable="0">
          <mxGeometry x="760" y="2110" width="600" height="300" as="geometry" />
        </mxCell>
        <mxCell id="hvm-jDke4rjOwN58F3rQ-39" value="редактирование профиля" style="ellipse;whiteSpace=wrap;html=1;" parent="hvm-jDke4rjOwN58F3rQ-38" vertex="1">
          <mxGeometry y="15" width="120" height="80" as="geometry" />
        </mxCell>
        <mxCell id="hvm-jDke4rjOwN58F3rQ-40" value="5" style="ellipse;whiteSpace=wrap;html=1;aspect=fixed;" parent="hvm-jDke4rjOwN58F3rQ-38" vertex="1">
          <mxGeometry x="41" width="30" height="30" as="geometry" />
        </mxCell>
        <mxCell id="hvm-jDke4rjOwN58F3rQ-41" value="" style="group" parent="1" vertex="1" connectable="0">
          <mxGeometry x="760" y="1996" width="120" height="95" as="geometry" />
        </mxCell>
        <mxCell id="hvm-jDke4rjOwN58F3rQ-42" value="добавление отзывов к тренерам" style="ellipse;whiteSpace=wrap;html=1;" parent="hvm-jDke4rjOwN58F3rQ-41" vertex="1">
          <mxGeometry y="15" width="120" height="80" as="geometry" />
        </mxCell>
        <mxCell id="hvm-jDke4rjOwN58F3rQ-43" value="4" style="ellipse;whiteSpace=wrap;html=1;aspect=fixed;" parent="hvm-jDke4rjOwN58F3rQ-41" vertex="1">
          <mxGeometry x="41" width="30" height="30" as="geometry" />
        </mxCell>
        <mxCell id="hvm-jDke4rjOwN58F3rQ-54" value="&amp;lt;&amp;lt;extend&amp;gt;&amp;gt;" style="html=1;verticalAlign=bottom;endArrow=open;dashed=1;endSize=8;curved=0;rounded=0;exitX=0;exitY=0.5;exitDx=0;exitDy=0;entryX=0.992;entryY=0.651;entryDx=0;entryDy=0;entryPerimeter=0;" parent="1" source="hvm-jDke4rjOwN58F3rQ-36" target="hvm-jDke4rjOwN58F3rQ-33" edge="1">
          <mxGeometry relative="1" as="geometry">
            <mxPoint x="968" y="2577" as="sourcePoint" />
            <mxPoint x="870" y="2490" as="targetPoint" />
          </mxGeometry>
        </mxCell>
        <mxCell id="bsanHMn8_xwavz5EXtZ8-5" style="rounded=0;orthogonalLoop=1;jettySize=auto;html=1;exitX=1;exitY=0.3333333333333333;exitDx=0;exitDy=0;exitPerimeter=0;entryX=0;entryY=0.5;entryDx=0;entryDy=0;endArrow=none;endFill=0;" parent="1" source="hvm-jDke4rjOwN58F3rQ-72" target="hvm-jDke4rjOwN58F3rQ-16" edge="1">
          <mxGeometry relative="1" as="geometry">
            <mxPoint x="370" y="2540" as="targetPoint" />
          </mxGeometry>
        </mxCell>
        <mxCell id="bsanHMn8_xwavz5EXtZ8-6" style="rounded=0;orthogonalLoop=1;jettySize=auto;html=1;exitX=1;exitY=0.3333333333333333;exitDx=0;exitDy=0;exitPerimeter=0;entryX=0;entryY=0.5;entryDx=0;entryDy=0;endArrow=none;endFill=0;" parent="1" source="hvm-jDke4rjOwN58F3rQ-72" target="hvm-jDke4rjOwN58F3rQ-33" edge="1">
          <mxGeometry relative="1" as="geometry" />
        </mxCell>
        <mxCell id="hvm-jDke4rjOwN58F3rQ-72" value="Клиент" style="shape=umlActor;verticalLabelPosition=bottom;verticalAlign=top;html=1;outlineConnect=0;" parent="1" vertex="1">
          <mxGeometry x="510" y="2255" width="30" height="60" as="geometry" />
        </mxCell>
        <mxCell id="bsanHMn8_xwavz5EXtZ8-11" style="rounded=0;orthogonalLoop=1;jettySize=auto;html=1;exitX=0;exitY=0.3333333333333333;exitDx=0;exitDy=0;exitPerimeter=0;entryX=1;entryY=0.5;entryDx=0;entryDy=0;endArrow=none;endFill=0;" parent="1" target="hvm-jDke4rjOwN58F3rQ-65" edge="1">
          <mxGeometry relative="1" as="geometry">
            <mxPoint x="1376" y="2187.5" as="sourcePoint" />
          </mxGeometry>
        </mxCell>
        <mxCell id="bsanHMn8_xwavz5EXtZ8-12" style="rounded=0;orthogonalLoop=1;jettySize=auto;html=1;exitX=0;exitY=0.3333333333333333;exitDx=0;exitDy=0;exitPerimeter=0;entryX=1;entryY=0.5;entryDx=0;entryDy=0;endArrow=none;endFill=0;" parent="1" target="hvm-jDke4rjOwN58F3rQ-62" edge="1">
          <mxGeometry relative="1" as="geometry">
            <mxPoint x="1376" y="2187.5" as="sourcePoint" />
          </mxGeometry>
        </mxCell>
        <mxCell id="bsanHMn8_xwavz5EXtZ8-13" style="rounded=0;orthogonalLoop=1;jettySize=auto;html=1;exitX=0;exitY=0.3333333333333333;exitDx=0;exitDy=0;exitPerimeter=0;entryX=1;entryY=0.5;entryDx=0;entryDy=0;endArrow=none;endFill=0;" parent="1" target="hvm-jDke4rjOwN58F3rQ-59" edge="1">
          <mxGeometry relative="1" as="geometry">
            <mxPoint x="1376" y="2187.5" as="sourcePoint" />
          </mxGeometry>
        </mxCell>
        <mxCell id="bsanHMn8_xwavz5EXtZ8-14" style="rounded=0;orthogonalLoop=1;jettySize=auto;html=1;exitX=0;exitY=0.3333333333333333;exitDx=0;exitDy=0;exitPerimeter=0;entryX=1;entryY=0.5;entryDx=0;entryDy=0;strokeColor=default;align=center;verticalAlign=middle;fontFamily=Helvetica;fontSize=11;fontColor=default;labelBackgroundColor=default;endArrow=none;endFill=0;" parent="1" target="hvm-jDke4rjOwN58F3rQ-16" edge="1">
          <mxGeometry relative="1" as="geometry">
            <mxPoint x="1376" y="2187.5" as="sourcePoint" />
          </mxGeometry>
        </mxCell>
        <mxCell id="bsanHMn8_xwavz5EXtZ8-15" style="rounded=0;orthogonalLoop=1;jettySize=auto;html=1;exitX=0;exitY=0.3333333333333333;exitDx=0;exitDy=0;exitPerimeter=0;entryX=1;entryY=0.5;entryDx=0;entryDy=0;endArrow=none;endFill=0;" parent="1" target="hvm-jDke4rjOwN58F3rQ-33" edge="1">
          <mxGeometry relative="1" as="geometry">
            <mxPoint x="1376" y="2187.5" as="sourcePoint" />
          </mxGeometry>
        </mxCell>
        <mxCell id="hvm-jDke4rjOwN58F3rQ-84" value="&amp;lt;&amp;lt;extend&amp;gt;&amp;gt;" style="html=1;verticalAlign=bottom;endArrow=open;dashed=1;endSize=8;curved=0;rounded=0;exitX=0;exitY=0.5;exitDx=0;exitDy=0;entryX=0.795;entryY=0.081;entryDx=0;entryDy=0;entryPerimeter=0;" parent="1" source="hvm-jDke4rjOwN58F3rQ-27" target="hvm-jDke4rjOwN58F3rQ-16" edge="1">
          <mxGeometry relative="1" as="geometry">
            <mxPoint x="1017" y="2510" as="sourcePoint" />
            <mxPoint x="919" y="2528" as="targetPoint" />
          </mxGeometry>
        </mxCell>
        <mxCell id="hvm-jDke4rjOwN58F3rQ-86" value="&amp;lt;&amp;lt;extend&amp;gt;&amp;gt;" style="html=1;verticalAlign=bottom;endArrow=open;dashed=1;endSize=8;curved=0;rounded=0;exitX=0;exitY=1;exitDx=0;exitDy=0;entryX=0.579;entryY=0.005;entryDx=0;entryDy=0;entryPerimeter=0;" parent="1" source="hvm-jDke4rjOwN58F3rQ-24" target="hvm-jDke4rjOwN58F3rQ-16" edge="1">
          <mxGeometry relative="1" as="geometry">
            <mxPoint x="930" y="2410" as="sourcePoint" />
            <mxPoint x="850" y="2410" as="targetPoint" />
          </mxGeometry>
        </mxCell>
        <mxCell id="hvm-jDke4rjOwN58F3rQ-87" value="&amp;lt;&amp;lt;extend&amp;gt;&amp;gt;" style="html=1;verticalAlign=bottom;endArrow=open;dashed=1;endSize=8;curved=0;rounded=0;exitX=0.5;exitY=1;exitDx=0;exitDy=0;entryX=0;entryY=0;entryDx=0;entryDy=0;" parent="1" source="hvm-jDke4rjOwN58F3rQ-88" target="hvm-jDke4rjOwN58F3rQ-16" edge="1">
          <mxGeometry relative="1" as="geometry">
            <mxPoint x="868.9999999999995" y="2370" as="sourcePoint" />
            <mxPoint x="813" y="2414" as="targetPoint" />
          </mxGeometry>
        </mxCell>
        <mxCell id="hvm-jDke4rjOwN58F3rQ-90" value="" style="group" parent="1" vertex="1" connectable="0">
          <mxGeometry x="760" y="2337.5" width="120" height="90" as="geometry" />
        </mxCell>
        <mxCell id="hvm-jDke4rjOwN58F3rQ-88" value="поиск абонементов" style="ellipse;whiteSpace=wrap;html=1;" parent="hvm-jDke4rjOwN58F3rQ-90" vertex="1">
          <mxGeometry y="10" width="120" height="80" as="geometry" />
        </mxCell>
        <mxCell id="hvm-jDke4rjOwN58F3rQ-89" value="7" style="ellipse;whiteSpace=wrap;html=1;aspect=fixed;" parent="hvm-jDke4rjOwN58F3rQ-90" vertex="1">
          <mxGeometry x="45" width="30" height="30" as="geometry" />
        </mxCell>
        <mxCell id="hvm-jDke4rjOwN58F3rQ-93" value="" style="group" parent="1" vertex="1" connectable="0">
          <mxGeometry x="760" y="2220" width="120" height="95" as="geometry" />
        </mxCell>
        <mxCell id="hvm-jDke4rjOwN58F3rQ-45" value="просмотр списка своих заказов" style="ellipse;whiteSpace=wrap;html=1;" parent="hvm-jDke4rjOwN58F3rQ-93" vertex="1">
          <mxGeometry y="15" width="120" height="80" as="geometry" />
        </mxCell>
        <mxCell id="hvm-jDke4rjOwN58F3rQ-46" value="6" style="ellipse;whiteSpace=wrap;html=1;aspect=fixed;" parent="hvm-jDke4rjOwN58F3rQ-93" vertex="1">
          <mxGeometry x="45" width="30" height="30" as="geometry" />
        </mxCell>
        <mxCell id="hvm-jDke4rjOwN58F3rQ-95" value="" style="endArrow=none;html=1;rounded=0;exitX=1;exitY=0.3333333333333333;exitDx=0;exitDy=0;exitPerimeter=0;entryX=0;entryY=0.5;entryDx=0;entryDy=0;" parent="1" source="hvm-jDke4rjOwN58F3rQ-72" target="hvm-jDke4rjOwN58F3rQ-42" edge="1">
          <mxGeometry width="50" height="50" relative="1" as="geometry">
            <mxPoint x="263" y="2397" as="sourcePoint" />
            <mxPoint x="324" y="2310" as="targetPoint" />
          </mxGeometry>
        </mxCell>
        <mxCell id="hvm-jDke4rjOwN58F3rQ-96" value="" style="endArrow=none;html=1;rounded=0;exitX=1;exitY=0.3333333333333333;exitDx=0;exitDy=0;exitPerimeter=0;entryX=0;entryY=0.5;entryDx=0;entryDy=0;" parent="1" source="hvm-jDke4rjOwN58F3rQ-72" target="hvm-jDke4rjOwN58F3rQ-39" edge="1">
          <mxGeometry width="50" height="50" relative="1" as="geometry">
            <mxPoint x="230" y="2415" as="sourcePoint" />
            <mxPoint x="446" y="2350" as="targetPoint" />
          </mxGeometry>
        </mxCell>
        <mxCell id="hvm-jDke4rjOwN58F3rQ-97" value="" style="endArrow=none;html=1;rounded=0;exitX=1;exitY=0.3333333333333333;exitDx=0;exitDy=0;exitPerimeter=0;entryX=0;entryY=0.5;entryDx=0;entryDy=0;" parent="1" source="hvm-jDke4rjOwN58F3rQ-72" target="hvm-jDke4rjOwN58F3rQ-45" edge="1">
          <mxGeometry width="50" height="50" relative="1" as="geometry">
            <mxPoint x="240" y="2380" as="sourcePoint" />
            <mxPoint x="473" y="2395" as="targetPoint" />
          </mxGeometry>
        </mxCell>
        <mxCell id="hvm-jDke4rjOwN58F3rQ-1" value="Гость" style="shape=umlActor;verticalLabelPosition=bottom;verticalAlign=top;html=1;outlineConnect=0;" parent="1" vertex="1">
          <mxGeometry x="540" y="1730" width="30" height="60" as="geometry" />
        </mxCell>
        <mxCell id="hvm-jDke4rjOwN58F3rQ-146" value="" style="group" parent="1" vertex="1" connectable="0">
          <mxGeometry x="763" y="1750" width="120" height="95" as="geometry" />
        </mxCell>
        <mxCell id="hvm-jDke4rjOwN58F3rQ-9" value="аутентификация" style="ellipse;whiteSpace=wrap;html=1;" parent="hvm-jDke4rjOwN58F3rQ-146" vertex="1">
          <mxGeometry y="15" width="120" height="80" as="geometry" />
        </mxCell>
        <mxCell id="hvm-jDke4rjOwN58F3rQ-10" value="2" style="ellipse;whiteSpace=wrap;html=1;aspect=fixed;" parent="hvm-jDke4rjOwN58F3rQ-146" vertex="1">
          <mxGeometry x="45" width="30" height="30" as="geometry" />
        </mxCell>
        <mxCell id="hvm-jDke4rjOwN58F3rQ-147" value="" style="endArrow=none;html=1;rounded=0;entryX=1;entryY=0.3333333333333333;entryDx=0;entryDy=0;entryPerimeter=0;exitX=0;exitY=0.5;exitDx=0;exitDy=0;" parent="1" source="hvm-jDke4rjOwN58F3rQ-3" target="hvm-jDke4rjOwN58F3rQ-1" edge="1">
          <mxGeometry width="50" height="50" relative="1" as="geometry">
            <mxPoint x="660" y="1986" as="sourcePoint" />
            <mxPoint x="710" y="1936" as="targetPoint" />
          </mxGeometry>
        </mxCell>
        <mxCell id="hvm-jDke4rjOwN58F3rQ-149" value="" style="endArrow=none;html=1;rounded=0;entryX=1;entryY=0.3333333333333333;entryDx=0;entryDy=0;entryPerimeter=0;exitX=0;exitY=0.5;exitDx=0;exitDy=0;" parent="1" source="hvm-jDke4rjOwN58F3rQ-9" target="hvm-jDke4rjOwN58F3rQ-1" edge="1">
          <mxGeometry width="50" height="50" relative="1" as="geometry">
            <mxPoint x="640" y="2016" as="sourcePoint" />
            <mxPoint x="690" y="1966" as="targetPoint" />
          </mxGeometry>
        </mxCell>
        <mxCell id="hvm-jDke4rjOwN58F3rQ-64" value="" style="group;direction=east;flipH=0;flipV=0;" parent="1" vertex="1" connectable="0">
          <mxGeometry x="1134" y="2130" width="120" height="95" as="geometry" />
        </mxCell>
        <mxCell id="hvm-jDke4rjOwN58F3rQ-65" value="редактирование тренеров" style="ellipse;whiteSpace=wrap;html=1;direction=east;" parent="hvm-jDke4rjOwN58F3rQ-64" vertex="1">
          <mxGeometry y="15" width="120" height="80" as="geometry" />
        </mxCell>
        <mxCell id="hvm-jDke4rjOwN58F3rQ-66" value="20" style="ellipse;whiteSpace=wrap;html=1;aspect=fixed;direction=east;" parent="hvm-jDke4rjOwN58F3rQ-64" vertex="1">
          <mxGeometry x="41" width="30" height="30" as="geometry" />
        </mxCell>
        <mxCell id="hvm-jDke4rjOwN58F3rQ-112" value="&amp;lt;&amp;lt;extend&amp;gt;&amp;gt;" style="html=1;verticalAlign=bottom;endArrow=open;dashed=1;endSize=8;curved=0;rounded=0;exitX=1;exitY=0.5;exitDx=0;exitDy=0;entryX=0;entryY=0;entryDx=0;entryDy=0;" parent="1" source="hvm-jDke4rjOwN58F3rQ-107" target="hvm-jDke4rjOwN58F3rQ-59" edge="1">
          <mxGeometry relative="1" as="geometry">
            <mxPoint x="1373" y="2239" as="sourcePoint" />
            <mxPoint x="1307" y="2239" as="targetPoint" />
          </mxGeometry>
        </mxCell>
        <mxCell id="hvm-jDke4rjOwN58F3rQ-123" value="" style="group;direction=east;flipH=0;flipV=0;" parent="1" vertex="1" connectable="0">
          <mxGeometry x="910" y="1775" width="120" height="95" as="geometry" />
        </mxCell>
        <mxCell id="hvm-jDke4rjOwN58F3rQ-124" value="обновление абонементов" style="ellipse;whiteSpace=wrap;html=1;direction=east;" parent="hvm-jDke4rjOwN58F3rQ-123" vertex="1">
          <mxGeometry y="15" width="120" height="80" as="geometry" />
        </mxCell>
        <mxCell id="hvm-jDke4rjOwN58F3rQ-125" value="19" style="ellipse;whiteSpace=wrap;html=1;aspect=fixed;direction=east;" parent="hvm-jDke4rjOwN58F3rQ-123" vertex="1">
          <mxGeometry x="41" width="30" height="30" as="geometry" />
        </mxCell>
        <mxCell id="hvm-jDke4rjOwN58F3rQ-126" value="" style="group;direction=east;flipH=0;flipV=0;" parent="1" vertex="1" connectable="0">
          <mxGeometry x="910" y="1880" width="120" height="95" as="geometry" />
        </mxCell>
        <mxCell id="hvm-jDke4rjOwN58F3rQ-127" value="удаление абонементов" style="ellipse;whiteSpace=wrap;html=1;direction=east;" parent="hvm-jDke4rjOwN58F3rQ-126" vertex="1">
          <mxGeometry y="15" width="120" height="80" as="geometry" />
        </mxCell>
        <mxCell id="hvm-jDke4rjOwN58F3rQ-128" value="18" style="ellipse;whiteSpace=wrap;html=1;aspect=fixed;direction=east;" parent="hvm-jDke4rjOwN58F3rQ-126" vertex="1">
          <mxGeometry x="10" y="15" width="30" height="30" as="geometry" />
        </mxCell>
        <mxCell id="hvm-jDke4rjOwN58F3rQ-133" value="" style="group;direction=east;flipH=0;flipV=0;" parent="1" vertex="1" connectable="0">
          <mxGeometry x="910" y="2000" width="120" height="95" as="geometry" />
        </mxCell>
        <mxCell id="hvm-jDke4rjOwN58F3rQ-134" value="добавление тренеров" style="ellipse;whiteSpace=wrap;html=1;direction=east;" parent="hvm-jDke4rjOwN58F3rQ-133" vertex="1">
          <mxGeometry y="15" width="120" height="80" as="geometry" />
        </mxCell>
        <mxCell id="hvm-jDke4rjOwN58F3rQ-135" value="21" style="ellipse;whiteSpace=wrap;html=1;aspect=fixed;direction=east;" parent="hvm-jDke4rjOwN58F3rQ-133" vertex="1">
          <mxGeometry x="41" width="30" height="30" as="geometry" />
        </mxCell>
        <mxCell id="hvm-jDke4rjOwN58F3rQ-137" value="" style="group;direction=east;flipH=0;flipV=0;" parent="1" vertex="1" connectable="0">
          <mxGeometry x="910" y="2105" width="120" height="95" as="geometry" />
        </mxCell>
        <mxCell id="hvm-jDke4rjOwN58F3rQ-138" value="обновление тренеров" style="ellipse;whiteSpace=wrap;html=1;direction=east;" parent="hvm-jDke4rjOwN58F3rQ-137" vertex="1">
          <mxGeometry y="15" width="120" height="80" as="geometry" />
        </mxCell>
        <mxCell id="hvm-jDke4rjOwN58F3rQ-139" value="23" style="ellipse;whiteSpace=wrap;html=1;aspect=fixed;direction=east;" parent="hvm-jDke4rjOwN58F3rQ-137" vertex="1">
          <mxGeometry x="41" width="30" height="30" as="geometry" />
        </mxCell>
        <mxCell id="hvm-jDke4rjOwN58F3rQ-140" value="" style="group;direction=east;flipH=0;flipV=0;" parent="1" vertex="1" connectable="0">
          <mxGeometry x="916" y="2200" width="120" height="95" as="geometry" />
        </mxCell>
        <mxCell id="hvm-jDke4rjOwN58F3rQ-141" value="удаление тренеров" style="ellipse;whiteSpace=wrap;html=1;direction=east;" parent="hvm-jDke4rjOwN58F3rQ-140" vertex="1">
          <mxGeometry y="15" width="120" height="80" as="geometry" />
        </mxCell>
        <mxCell id="hvm-jDke4rjOwN58F3rQ-142" value="22" style="ellipse;whiteSpace=wrap;html=1;aspect=fixed;direction=east;" parent="hvm-jDke4rjOwN58F3rQ-140" vertex="1">
          <mxGeometry x="10" y="10" width="30" height="30" as="geometry" />
        </mxCell>
        <mxCell id="hvm-jDke4rjOwN58F3rQ-130" value="&amp;lt;&amp;lt;extend&amp;gt;&amp;gt;" style="html=1;verticalAlign=bottom;endArrow=open;dashed=1;endSize=8;curved=0;rounded=0;exitX=1;exitY=0.5;exitDx=0;exitDy=0;entryX=0.25;entryY=0.063;entryDx=0;entryDy=0;entryPerimeter=0;" parent="1" source="hvm-jDke4rjOwN58F3rQ-120" target="hvm-jDke4rjOwN58F3rQ-62" edge="1">
          <mxGeometry relative="1" as="geometry">
            <mxPoint x="867" y="1966.7199999999998" as="sourcePoint" />
            <mxPoint x="769.4264068711927" y="1775.0042712474615" as="targetPoint" />
          </mxGeometry>
        </mxCell>
        <mxCell id="hvm-jDke4rjOwN58F3rQ-131" value="&amp;lt;&amp;lt;extend&amp;gt;&amp;gt;" style="html=1;verticalAlign=bottom;endArrow=open;dashed=1;endSize=8;curved=0;rounded=0;exitX=1;exitY=0.5;exitDx=0;exitDy=0;entryX=0.04;entryY=0.288;entryDx=0;entryDy=0;entryPerimeter=0;" parent="1" source="hvm-jDke4rjOwN58F3rQ-124" target="hvm-jDke4rjOwN58F3rQ-62" edge="1">
          <mxGeometry relative="1" as="geometry">
            <mxPoint x="856.9999999999991" y="1845" as="sourcePoint" />
            <mxPoint x="776.9999999999991" y="1845" as="targetPoint" />
          </mxGeometry>
        </mxCell>
        <mxCell id="hvm-jDke4rjOwN58F3rQ-132" value="&amp;lt;&amp;lt;extend&amp;gt;&amp;gt;" style="html=1;verticalAlign=bottom;endArrow=open;dashed=1;endSize=8;curved=0;rounded=0;exitX=1;exitY=0.5;exitDx=0;exitDy=0;entryX=0;entryY=1;entryDx=0;entryDy=0;" parent="1" source="hvm-jDke4rjOwN58F3rQ-127" target="hvm-jDke4rjOwN58F3rQ-62" edge="1">
          <mxGeometry relative="1" as="geometry">
            <mxPoint x="908.431818181818" y="1830" as="sourcePoint" />
            <mxPoint x="810.431818181818" y="1750" as="targetPoint" />
          </mxGeometry>
        </mxCell>
        <mxCell id="hvm-jDke4rjOwN58F3rQ-136" value="&amp;lt;&amp;lt;extend&amp;gt;&amp;gt;" style="html=1;verticalAlign=bottom;endArrow=open;dashed=1;endSize=8;curved=0;rounded=0;exitX=1;exitY=0.5;exitDx=0;exitDy=0;entryX=0;entryY=0;entryDx=0;entryDy=0;" parent="1" source="hvm-jDke4rjOwN58F3rQ-134" target="hvm-jDke4rjOwN58F3rQ-65" edge="1">
          <mxGeometry relative="1" as="geometry">
            <mxPoint x="890" y="2025" as="sourcePoint" />
            <mxPoint x="810" y="2025" as="targetPoint" />
          </mxGeometry>
        </mxCell>
        <mxCell id="hvm-jDke4rjOwN58F3rQ-143" value="&amp;lt;&amp;lt;extend&amp;gt;&amp;gt;" style="html=1;verticalAlign=bottom;endArrow=open;dashed=1;endSize=8;curved=0;rounded=0;exitX=1;exitY=0.5;exitDx=0;exitDy=0;entryX=0;entryY=1;entryDx=0;entryDy=0;" parent="1" source="hvm-jDke4rjOwN58F3rQ-141" target="hvm-jDke4rjOwN58F3rQ-65" edge="1">
          <mxGeometry relative="1" as="geometry">
            <mxPoint x="809.431818181818" y="2095" as="sourcePoint" />
            <mxPoint x="809.431818181818" y="2035" as="targetPoint" />
          </mxGeometry>
        </mxCell>
        <mxCell id="hvm-jDke4rjOwN58F3rQ-144" value="&amp;lt;&amp;lt;extend&amp;gt;&amp;gt;" style="html=1;verticalAlign=bottom;endArrow=open;dashed=1;endSize=8;curved=0;rounded=0;exitX=1;exitY=0.5;exitDx=0;exitDy=0;entryX=0;entryY=0.5;entryDx=0;entryDy=0;" parent="1" source="hvm-jDke4rjOwN58F3rQ-138" target="hvm-jDke4rjOwN58F3rQ-65" edge="1">
          <mxGeometry relative="1" as="geometry">
            <mxPoint x="900" y="2055" as="sourcePoint" />
            <mxPoint x="1212" y="2303" as="targetPoint" />
          </mxGeometry>
        </mxCell>
        <mxCell id="hvm-jDke4rjOwN58F3rQ-62" value="редактирование абонементов" style="ellipse;whiteSpace=wrap;html=1;direction=east;" parent="1" vertex="1">
          <mxGeometry x="1110" y="1855" width="120" height="80" as="geometry" />
        </mxCell>
        <mxCell id="hvm-jDke4rjOwN58F3rQ-63" value="16" style="ellipse;whiteSpace=wrap;html=1;aspect=fixed;direction=east;" parent="1" vertex="1">
          <mxGeometry x="1151" y="1840" width="30" height="30" as="geometry" />
        </mxCell>
        <mxCell id="bsanHMn8_xwavz5EXtZ8-8" value="" style="group" parent="1" vertex="1" connectable="0">
          <mxGeometry x="1030" y="1960" width="120" height="90" as="geometry" />
        </mxCell>
        <mxCell id="hvm-jDke4rjOwN58F3rQ-107" value="удаление клиентов" style="ellipse;whiteSpace=wrap;html=1;direction=east;flipH=0;flipV=0;" parent="bsanHMn8_xwavz5EXtZ8-8" vertex="1">
          <mxGeometry y="10" width="120" height="80" as="geometry" />
        </mxCell>
        <mxCell id="hvm-jDke4rjOwN58F3rQ-154" value="15" style="ellipse;whiteSpace=wrap;html=1;aspect=fixed;direction=east;flipH=0;flipV=0;" parent="bsanHMn8_xwavz5EXtZ8-8" vertex="1">
          <mxGeometry x="37" width="30" height="30" as="geometry" />
        </mxCell>
        <mxCell id="bsanHMn8_xwavz5EXtZ8-9" value="" style="group" parent="1" vertex="1" connectable="0">
          <mxGeometry x="1182" y="2000" width="120" height="100" as="geometry" />
        </mxCell>
        <mxCell id="hvm-jDke4rjOwN58F3rQ-59" value="редактирование клиентов" style="ellipse;whiteSpace=wrap;html=1;direction=east;flipH=0;flipV=0;" parent="bsanHMn8_xwavz5EXtZ8-9" vertex="1">
          <mxGeometry y="20" width="120" height="80" as="geometry" />
        </mxCell>
        <mxCell id="hvm-jDke4rjOwN58F3rQ-153" value="14" style="ellipse;whiteSpace=wrap;html=1;aspect=fixed;direction=east;flipH=0;flipV=0;" parent="bsanHMn8_xwavz5EXtZ8-9" vertex="1">
          <mxGeometry x="45" width="30" height="30" as="geometry" />
        </mxCell>
        <mxCell id="bsanHMn8_xwavz5EXtZ8-19" value="" style="group" parent="1" vertex="1" connectable="0">
          <mxGeometry x="915" y="1664" width="120" height="90" as="geometry" />
        </mxCell>
        <mxCell id="hvm-jDke4rjOwN58F3rQ-120" value="добавление абонементов" style="ellipse;whiteSpace=wrap;html=1;direction=east;" parent="bsanHMn8_xwavz5EXtZ8-19" vertex="1">
          <mxGeometry y="10" width="120" height="80" as="geometry" />
        </mxCell>
        <mxCell id="bsanHMn8_xwavz5EXtZ8-18" value="17" style="ellipse;whiteSpace=wrap;html=1;aspect=fixed;direction=east;" parent="bsanHMn8_xwavz5EXtZ8-19" vertex="1">
          <mxGeometry x="30" width="30" height="30" as="geometry" />
        </mxCell>
        <mxCell id="bsanHMn8_xwavz5EXtZ8-22" value="" style="group" parent="1" vertex="1" connectable="0">
          <mxGeometry x="760" y="1640" width="120" height="95" as="geometry" />
        </mxCell>
        <mxCell id="hvm-jDke4rjOwN58F3rQ-3" value="регистрация" style="ellipse;whiteSpace=wrap;html=1;" parent="bsanHMn8_xwavz5EXtZ8-22" vertex="1">
          <mxGeometry y="15" width="120" height="80" as="geometry" />
        </mxCell>
        <mxCell id="hvm-jDke4rjOwN58F3rQ-4" value="1" style="ellipse;whiteSpace=wrap;html=1;aspect=fixed;" parent="bsanHMn8_xwavz5EXtZ8-22" vertex="1">
          <mxGeometry x="45" width="30" height="30" as="geometry" />
        </mxCell>
        <mxCell id="bsanHMn8_xwavz5EXtZ8-23" value="" style="group" parent="1" vertex="1" connectable="0">
          <mxGeometry x="860" y="2540" width="120" height="95" as="geometry" />
        </mxCell>
        <mxCell id="bsanHMn8_xwavz5EXtZ8-24" value="Выход из системы" style="ellipse;whiteSpace=wrap;html=1;" parent="bsanHMn8_xwavz5EXtZ8-23" vertex="1">
          <mxGeometry y="15" width="120" height="80" as="geometry" />
        </mxCell>
        <mxCell id="bsanHMn8_xwavz5EXtZ8-25" value="11" style="ellipse;whiteSpace=wrap;html=1;aspect=fixed;" parent="bsanHMn8_xwavz5EXtZ8-23" vertex="1">
          <mxGeometry x="41" width="30" height="30" as="geometry" />
        </mxCell>
        <mxCell id="bsanHMn8_xwavz5EXtZ8-26" value="" style="endArrow=none;html=1;rounded=0;exitX=1;exitY=0.3333333333333333;exitDx=0;exitDy=0;exitPerimeter=0;entryX=0;entryY=0.5;entryDx=0;entryDy=0;" parent="1" source="hvm-jDke4rjOwN58F3rQ-72" target="bsanHMn8_xwavz5EXtZ8-24" edge="1">
          <mxGeometry width="50" height="50" relative="1" as="geometry">
            <mxPoint x="480" y="2530" as="sourcePoint" />
            <mxPoint x="530" y="2480" as="targetPoint" />
          </mxGeometry>
        </mxCell>
        <mxCell id="bsanHMn8_xwavz5EXtZ8-27" value="" style="endArrow=none;html=1;rounded=0;entryX=0;entryY=0.3333333333333333;entryDx=0;entryDy=0;entryPerimeter=0;exitX=1;exitY=0.5;exitDx=0;exitDy=0;" parent="1" source="bsanHMn8_xwavz5EXtZ8-24" edge="1">
          <mxGeometry width="50" height="50" relative="1" as="geometry">
            <mxPoint x="980" y="2600" as="sourcePoint" />
            <mxPoint x="1376" y="2187.5" as="targetPoint" />
          </mxGeometry>
        </mxCell>
        <mxCell id="hvm-jDke4rjOwN58F3rQ-26" value="" style="group" parent="1" vertex="1" connectable="0">
          <mxGeometry x="1030" y="2270" width="120" height="95" as="geometry" />
        </mxCell>
        <mxCell id="hvm-jDke4rjOwN58F3rQ-27" value="фильтрация абонементов" style="ellipse;whiteSpace=wrap;html=1;" parent="hvm-jDke4rjOwN58F3rQ-26" vertex="1">
          <mxGeometry y="15" width="120" height="80" as="geometry" />
        </mxCell>
        <mxCell id="hvm-jDke4rjOwN58F3rQ-28" value="10" style="ellipse;whiteSpace=wrap;html=1;aspect=fixed;" parent="hvm-jDke4rjOwN58F3rQ-26" vertex="1">
          <mxGeometry x="41" width="30" height="30" as="geometry" />
        </mxCell>
        <mxCell id="hvm-jDke4rjOwN58F3rQ-23" value="" style="group" parent="1" vertex="1" connectable="0">
          <mxGeometry x="880" y="2290" width="120" height="95" as="geometry" />
        </mxCell>
        <mxCell id="hvm-jDke4rjOwN58F3rQ-24" value="сортировка абонементов" style="ellipse;whiteSpace=wrap;html=1;" parent="hvm-jDke4rjOwN58F3rQ-23" vertex="1">
          <mxGeometry y="15" width="120" height="80" as="geometry" />
        </mxCell>
        <mxCell id="hvm-jDke4rjOwN58F3rQ-25" value="8" style="ellipse;whiteSpace=wrap;html=1;aspect=fixed;" parent="hvm-jDke4rjOwN58F3rQ-23" vertex="1">
          <mxGeometry x="41" width="30" height="30" as="geometry" />
        </mxCell>
        <mxCell id="hvm-jDke4rjOwN58F3rQ-15" value="" style="group" parent="1" vertex="1" connectable="0">
          <mxGeometry x="860" y="2440" width="120" height="95" as="geometry" />
        </mxCell>
        <mxCell id="hvm-jDke4rjOwN58F3rQ-16" value="просмотр информации о абонементах" style="ellipse;whiteSpace=wrap;html=1;" parent="hvm-jDke4rjOwN58F3rQ-15" vertex="1">
          <mxGeometry y="15" width="120" height="80" as="geometry" />
        </mxCell>
        <mxCell id="hvm-jDke4rjOwN58F3rQ-17" value="9" style="ellipse;whiteSpace=wrap;html=1;aspect=fixed;" parent="hvm-jDke4rjOwN58F3rQ-15" vertex="1">
          <mxGeometry x="23" width="30" height="30" as="geometry" />
        </mxCell>
        <mxCell id="C9mWe7rTJCh-MoRmAu-K-12" value="" style="group" parent="1" vertex="1" connectable="0">
          <mxGeometry x="760" y="1880" width="120" height="95" as="geometry" />
        </mxCell>
        <mxCell id="C9mWe7rTJCh-MoRmAu-K-13" value="покупка абонементов" style="ellipse;whiteSpace=wrap;html=1;" parent="C9mWe7rTJCh-MoRmAu-K-12" vertex="1">
          <mxGeometry y="15" width="120" height="80" as="geometry" />
        </mxCell>
        <mxCell id="C9mWe7rTJCh-MoRmAu-K-14" value="3" style="ellipse;whiteSpace=wrap;html=1;aspect=fixed;" parent="C9mWe7rTJCh-MoRmAu-K-12" vertex="1">
          <mxGeometry x="41" width="30" height="30" as="geometry" />
        </mxCell>
        <mxCell id="C9mWe7rTJCh-MoRmAu-K-15" style="rounded=0;orthogonalLoop=1;jettySize=auto;html=1;exitX=0;exitY=0.5;exitDx=0;exitDy=0;entryX=1;entryY=0.3333333333333333;entryDx=0;entryDy=0;entryPerimeter=0;endArrow=none;endFill=0;" parent="1" source="C9mWe7rTJCh-MoRmAu-K-13" target="hvm-jDke4rjOwN58F3rQ-72" edge="1">
          <mxGeometry relative="1" as="geometry" />
        </mxCell>
        <mxCell id="C9mWe7rTJCh-MoRmAu-K-16" value="Администратор" style="shape=umlActor;verticalLabelPosition=bottom;verticalAlign=top;html=1;outlineConnect=0;" parent="1" vertex="1">
          <mxGeometry x="1375" y="2167" width="30" height="60" as="geometry" />
        </mxCell>
      </root>
    </mxGraphModel>
  </diagram>
</mxfile>
